<?xml version="1.0" encoding="UTF-8"?>
<svg width="426px" height="157px" viewBox="0 0 426 157" version="1.1" xmlns="http://www.w3.org/2000/svg" xmlns:xlink="http://www.w3.org/1999/xlink">
    <title>Group</title>
    <g id="Page-1" stroke="none" stroke-width="1" fill="none" fill-rule="evenodd">
        <g id="Group" transform="translate(0.000000, 0.496000)">
            <path d="M93.954,30.074 L91.813,30.074 C91.813,30.074 83.672,27.704 82.542,45.996 C82.258,50.651 80.336,54.599 78.607,58.07 L93.954,58.07 L93.954,30.074 Z M195.18,72.623 C192.55,76.095 189.414,79.803 185.671,83.761 C185.154,84.322 184.609,84.881 184.052,85.454 C178.951,90.714 172.855,96.409 165.541,102.575 L163.941,104.102 L162.796,105.196 L160.929,105.975 C159.788,106.468 158.796,106.714 157.824,106.714 C156.632,106.714 155.484,106.326 154.156,105.518 C154.156,105.518 139.697,91.753 129.974,82.018 C129.65,81.699 129.315,81.412 128.986,81.111 C127.144,79.395 125.282,78.045 123.471,76.993 C123.318,76.896 123.163,76.803 123.01,76.718 L122.787,76.457 C122.787,76.457 116.66,73.081 111.171,73.081 L110.785,73.081 C110.008,73.056 109.555,73.081 109.555,73.081 L98.422,73.081 L98.422,67.951 L72.905,67.951 L72.905,73.081 L57.034,73.081 L57.034,58.07 L63.259,58.07 C65.057,55.207 66.624,50.639 67.978,44.35 C67.978,44.35 67.172,47.749 70.162,33.359 C73.14,18.963 85.658,20.015 85.658,20.015 L109.513,20.015 L109.513,58.07 L115.625,58.07 C115.625,58.07 118.888,57.884 123.244,59.289 C126.472,60.33 130.292,62.243 133.839,65.792 C133.852,65.798 133.856,65.807 133.874,65.816 C134.293,66.24 134.678,66.651 135.043,67.061 C135.095,67.072 135.141,67.083 135.199,67.106 C143.857,75.489 151.758,83.376 156.927,88.068 C157.263,88.381 157.622,88.692 157.939,88.979 C159.953,87.251 161.955,85.469 163.941,83.674 C167.9,80.074 171.738,76.354 175.238,72.623 C177.001,70.743 178.662,68.866 180.227,66.995 C188.97,56.521 194.097,46.4 190.575,39.065 C183.026,32.12 177.986,34.726 164.476,47.113 L158.19,52.877 L153.061,46.72 C146.278,38.592 139.913,34.391 134.457,34.548 C129.044,34.717 125.511,39.451 125.466,39.5 L112.984,30.702 C113.75,29.59 120.89,19.846 133.663,19.293 C142.339,18.925 150.979,22.892 159.433,31.117 C170.495,21.644 185.408,12.54 202.069,28.926 L202.786,29.634 L203.31,30.504 C208.173,38.785 211.275,51.372 195.18,72.623 Z M226.204,58.408 C227.16,58.772 228.227,59.08 229.353,59.32 C230.501,59.566 231.77,59.686 233.146,59.686 C236.89,59.686 239.745,58.376 241.758,55.757 C243.768,53.132 244.774,49.348 244.774,44.407 C244.774,42.157 244.645,40.081 244.401,38.188 C244.153,36.297 243.686,34.682 243.011,33.341 C242.313,31.994 241.371,30.944 240.193,30.185 C239.017,29.417 237.474,29.04 235.543,29.04 C233.73,29.04 232.032,29.526 230.411,30.504 C228.765,31.479 227.375,32.671 226.204,34.069 L226.204,58.408 Z M226.204,68.657 L226.204,89.542 C225.915,87.176 225.332,85.052 224.408,83.201 C223.043,80.527 221.127,78.316 218.64,76.567 C216.358,74.954 213.571,73.753 210.343,72.932 L210.343,30.87 L207.216,23.917 L219.35,18.792 L224.75,25.471 C226.681,23.52 228.97,21.946 231.602,20.761 C234.229,19.569 237.088,18.972 240.193,18.972 C247.122,18.972 252.274,21.214 255.656,25.697 C259.043,30.185 260.743,36.448 260.743,44.5 C260.743,48.34 260.157,51.82 258.983,54.925 C257.811,58.039 256.106,60.694 253.898,62.891 C251.685,65.088 248.975,66.779 245.81,67.965 C242.624,69.159 238.988,69.756 234.909,69.756 C233.532,69.756 232.063,69.638 230.501,69.429 C228.956,69.216 227.515,68.959 226.204,68.657 Z M279.138,43.373 C279.138,50.515 284.955,56.33 292.102,56.33 C299.246,56.33 305.057,50.515 305.057,43.373 C305.057,36.224 299.246,30.412 292.102,30.412 C284.955,30.412 279.138,36.224 279.138,43.373 Z M266.181,43.373 C266.181,29.073 277.802,17.445 292.102,17.445 C306.393,17.445 318.032,29.073 318.032,43.373 C318.032,57.666 306.393,69.301 292.102,69.301 C277.802,69.301 266.181,57.666 266.181,43.373 Z M407.49,46.48 L400.851,46.48 C398.226,46.48 396.184,46.875 394.733,47.665 C393.277,48.46 392.557,50.169 392.557,52.79 C392.557,55.114 393.126,56.716 394.266,57.6 C395.407,58.479 397.054,58.927 399.193,58.927 C400.574,58.927 402.059,58.585 403.657,57.915 C405.244,57.245 406.526,56.488 407.49,55.629 L407.49,46.48 Z M407.49,38.614 L407.49,36.874 C407.49,34.373 406.904,32.316 405.728,30.7 C404.549,29.077 402.474,28.272 399.502,28.272 C396.39,28.272 393.609,28.52 391.159,29.004 C388.699,29.492 386.361,30.16 384.154,31.021 L380.106,22.146 C383.013,20.923 386.418,19.962 390.32,19.261 C394.233,18.559 397.911,18.208 401.376,18.208 C405.317,18.208 408.613,18.61 411.279,19.396 C413.944,20.193 416.081,21.413 417.704,23.056 C419.335,24.707 420.492,26.829 421.184,29.415 C421.874,32.013 422.223,35.13 422.223,38.792 L422.223,57.369 L422,68.808 L409.037,68.985 L408.837,62.949 C406.211,64.964 403.736,66.469 401.424,67.481 C399.105,68.48 396.601,68.985 393.904,68.985 C388.782,68.985 384.811,67.672 381.971,65.057 C379.143,62.434 377.727,58.769 377.727,54.073 C377.727,48.46 379.642,44.487 383.479,42.134 C387.317,39.788 393.103,38.614 400.851,38.614 L407.49,38.614 Z M356.684,53.25 C356.684,50.812 355.918,49.257 354.396,48.584 C352.875,47.918 350.663,47.576 347.761,47.576 L340.706,47.576 L340.706,58.19 L347.346,58.19 C348.801,58.19 350.092,58.159 351.231,58.101 C352.372,58.039 353.344,57.855 354.134,57.548 C354.932,57.245 355.554,56.756 356.005,56.086 C356.456,55.416 356.684,54.47 356.684,53.25 Z M340.706,38.246 L347.133,38.246 C349.839,38.246 351.77,37.864 352.947,37.1 C354.118,36.342 354.706,34.983 354.706,33.035 C354.706,31.081 354.076,29.848 352.789,29.328 C351.506,28.809 349.482,28.547 346.723,28.547 L340.706,28.547 L340.706,38.246 Z M372.029,53.618 C372.029,58.13 370.496,61.546 367.415,63.859 C364.337,66.182 359.656,67.343 353.361,67.343 L325.143,67.343 L325.143,19.396 L352.633,19.396 C357.956,19.396 362.161,20.404 365.238,22.421 C368.312,24.432 369.848,27.695 369.848,32.204 C369.848,34.162 369.35,35.96 368.348,37.607 C367.34,39.249 365.699,40.685 363.422,41.91 C366.74,43.187 369,44.815 370.216,46.8 C371.423,48.779 372.029,51.057 372.029,53.618 Z M55.334,43.688 C55.717,45.369 55.906,47.121 55.906,48.953 C55.906,55.238 53.469,60.147 48.593,63.681 C43.717,67.219 36.652,68.985 27.386,68.985 C24.201,68.985 21.296,68.79 18.666,68.391 C16.042,67.996 13.623,67.459 11.41,66.788 C9.193,66.118 7.162,65.345 5.287,64.453 C3.422,63.57 1.656,62.647 0,61.666 L6.23,51.969 C7.815,52.765 9.317,53.498 10.735,54.164 C12.154,54.836 13.674,55.416 15.294,55.904 C16.921,56.388 18.742,56.774 20.745,57.049 C22.749,57.32 25.1,57.46 27.799,57.46 C32.021,57.46 35.026,56.681 36.821,55.123 C38.618,53.569 39.515,51.421 39.515,48.675 C39.515,45.379 38.481,42.984 36.41,41.496 C34.33,40.004 30.773,39.249 25.724,39.249 L13.589,39.249 L13.589,28.272 L23.757,28.272 C28.456,28.272 31.967,27.661 34.282,26.438 C36.599,25.222 37.753,22.903 37.753,19.491 C37.753,17.11 36.979,15.161 35.427,13.634 C33.871,12.112 30.946,11.348 26.66,11.348 C22.925,11.348 19.569,11.865 16.6,12.902 C13.623,13.938 10.96,15.043 8.607,16.198 L2.696,6.587 C6.088,4.816 9.857,3.278 14.007,1.971 C18.155,0.657 23.096,2.84217094e-14 28.835,2.84217094e-14 C33.811,2.84217094e-14 37.931,0.501 41.184,1.509 C44.429,2.519 46.986,3.875 48.846,5.584 C50.721,7.293 52.036,9.228 52.792,11.395 C53.558,13.561 53.937,15.796 53.937,18.12 C53.937,19.154 53.813,20.315 53.569,21.591 C53.338,22.878 52.866,24.17 52.175,25.484 C51.476,26.794 50.493,28.076 49.218,29.328 C47.943,30.575 46.293,31.69 44.289,32.662 C46.502,33.394 48.349,34.3 49.84,35.361 C51.323,36.432 52.515,37.669 53.418,39.071 C54.315,40.472 54.956,42.012 55.334,43.688 L55.334,43.688 Z" id="Fill-5" fill="#84BF41"></path>
            <path d="M208.91,133.852 C208.188,135.268 207.156,136.364 205.813,137.15 C204.453,137.927 202.811,138.446 200.873,138.706 C198.94,138.972 196.78,139.102 194.427,139.102 L184.052,139.102 L184.052,117.574 L195.051,117.574 C197.499,117.574 199.656,117.699 201.501,117.96 C203.361,118.222 204.93,118.737 206.182,119.518 C207.456,120.299 208.395,121.378 209.036,122.754 C209.664,124.131 209.979,125.968 209.979,128.281 C209.979,130.581 209.629,132.447 208.91,133.852 Z M226.985,117.516 C224.921,114.205 221.148,111.466 215.675,109.318 C219.47,107.302 222.213,104.91 223.889,102.122 C225.586,99.33 226.415,96.261 226.415,92.911 C226.415,91.731 226.337,90.621 226.204,89.542 C225.915,87.176 225.332,85.052 224.408,83.201 C223.043,80.527 221.127,78.316 218.64,76.567 C216.358,74.954 213.571,73.753 210.343,72.932 C210.066,72.865 209.815,72.781 209.537,72.719 C209.382,72.683 209.214,72.652 209.056,72.623 L195.18,72.623 C192.55,76.095 189.414,79.803 185.671,83.761 L193.413,83.761 C197.965,83.761 201.319,84.488 203.472,85.943 C205.611,87.396 206.699,89.98 206.699,93.697 C206.699,97.408 205.72,100.014 203.785,101.501 C201.85,102.996 198.591,103.736 194.041,103.736 L184.052,103.736 L184.052,85.454 C178.951,90.714 172.855,96.409 165.541,102.575 L163.941,104.102 L163.941,151.931 L198.718,151.931 C209.26,151.931 217.128,149.996 222.308,146.127 C227.502,142.264 230.085,136.498 230.085,128.831 C230.085,124.594 229.049,120.824 226.985,117.516 Z M264.03,136.12 C255.314,136.12 248.219,129.031 248.219,120.317 C248.219,111.599 255.314,104.506 264.03,104.506 C272.742,104.506 279.83,111.599 279.83,120.317 C279.83,129.031 272.742,136.12 264.03,136.12 Z M264.03,88.694 C246.592,88.694 232.407,102.886 232.407,120.317 C232.407,137.749 246.592,151.931 264.03,151.931 C281.457,151.931 295.644,137.749 295.644,120.317 C295.644,102.886 281.457,88.694 264.03,88.694 Z M407.232,135.263 C406.054,136.307 404.491,137.236 402.547,138.055 C400.609,138.877 398.801,139.285 397.116,139.285 C394.497,139.285 392.499,138.745 391.105,137.662 C389.716,136.582 389.024,134.633 389.024,131.805 C389.024,128.605 389.905,126.523 391.678,125.562 C393.449,124.594 395.935,124.108 399.136,124.108 L407.232,124.108 L407.232,135.263 Z M423.927,103.303 C423.086,100.145 421.672,97.55 419.688,95.55 C417.704,93.542 415.089,92.05 411.844,91.087 C408.606,90.121 404.578,89.631 399.77,89.631 C395.556,89.631 391.066,90.062 386.303,90.918 C381.54,91.771 377.386,92.942 373.84,94.434 L378.774,105.256 C381.476,104.209 384.319,103.392 387.313,102.799 C390.3,102.207 393.698,101.909 397.493,101.909 C401.124,101.909 403.65,102.89 405.084,104.861 C406.522,106.832 407.232,109.34 407.232,112.394 L407.232,114.516 L399.136,114.516 C389.701,114.516 382.634,115.945 377.957,118.808 C373.279,121.667 370.938,126.523 370.938,133.363 C370.938,139.1 372.664,143.555 376.122,146.756 C379.578,149.956 384.425,151.554 390.666,151.554 C393.953,151.554 397.01,150.942 399.837,149.717 C402.651,148.487 405.672,146.645 408.879,144.19 L409.119,151.554 L424.926,151.33 L425.197,137.385 L425.197,114.74 C425.197,110.274 424.77,106.463 423.927,103.303 Z M341.521,137.497 L322.804,137.497 C324.91,133.259 327.263,128.441 327.607,122.77 C328.974,100.464 338.908,103.36 338.908,103.36 L341.521,103.36 L341.521,137.497 Z M360.497,91.087 L331.407,91.087 C331.407,91.087 316.141,89.813 312.501,107.36 C308.863,124.912 309.846,120.761 309.846,120.761 C308.197,128.428 306.278,134.003 304.085,137.497 L296.503,137.497 L296.503,155.798 L315.85,155.798 L315.85,149.541 L346.955,149.541 L346.955,155.798 L366.31,155.798 L366.31,137.497 L360.497,137.497 L360.497,91.087 L360.497,91.087 Z" id="Fill-1" fill="#00A3DA"></path>
        </g>
    </g>
</svg>